<?xml version="1.0" standalone="no"?>
<!DOCTYPE svg PUBLIC "-//W3C//DTD SVG 20010904//EN"
 "http://www.w3.org/TR/2001/REC-SVG-20010904/DTD/svg10.dtd">
<svg version="1.0" xmlns="http://www.w3.org/2000/svg"
 width="402.000000pt" height="472.000000pt" viewBox="0 0 402.000000 472.000000"
 preserveAspectRatio="xMidYMid meet">
<metadata>
Created by potrace 1.13, written by Peter Selinger 2001-2015
</metadata>
<g transform="translate(0.000000,472.000000) scale(0.100000,-0.100000)"
fill="#000000" stroke="none">
<path d="M3354 4708 c-29 -13 -44 -49 -44 -103 0 -34 -5 -47 -20 -55 -27 -15
-68 -87 -76 -137 -6 -39 -5 -42 27 -60 27 -14 56 -18 149 -18 135 0 173 13
178 59 5 40 -23 107 -58 141 -17 16 -30 32 -30 35 0 4 28 10 62 13 45 4 67 2
82 -9 11 -8 27 -14 36 -14 9 0 42 -31 75 -70 86 -102 85 -120 -12 -266 l-76
-114 -53 0 c-29 0 -64 -5 -78 -11 -27 -13 -50 -57 -44 -86 3 -17 18 -18 213
-18 195 0 210 1 213 18 6 29 -17 73 -44 86 -14 6 -40 11 -59 11 -19 0 -35 3
-35 6 0 15 116 183 146 210 20 19 34 41 34 56 0 27 -26 68 -43 68 -17 0 -152
160 -162 190 -18 60 -59 78 -114 51 -20 -11 -62 -21 -92 -22 -48 -2 -58 1 -81
24 -28 28 -58 33 -94 15z m150 -210 c13 -18 29 -50 34 -71 11 -38 10 -39 -23
-53 -46 -19 -195 -19 -242 1 -33 14 -35 17 -29 47 3 18 18 49 33 70 l26 38 88
0 c88 0 88 0 113 -32z m348 -435 c43 -39 28 -43 -167 -43 -154 0 -185 2 -185
14 0 8 7 22 16 30 24 24 309 23 336 -1z"/>
<path d="M162 4597 l-62 -62 110 -110 110 -110 -85 -85 c-76 -77 -88 -93 -101
-144 -8 -32 -13 -60 -11 -63 3 -2 31 3 63 11 57 15 64 21 306 264 265 264 273
277 228 322 -39 39 -66 27 -174 -80 l-101 -99 -110 109 -110 110 -63 -63z m78
-9 c0 -13 5 -18 14 -15 23 9 39 -18 21 -33 -8 -7 -12 -17 -9 -22 3 -5 13 -3
23 6 20 18 43 3 33 -22 -4 -11 -1 -14 10 -10 25 10 40 -13 22 -33 -19 -21 -1
-37 22 -18 8 6 17 9 21 5 17 -16 7 -48 -24 -78 l-33 -32 -100 99 -100 99 42
43 c43 44 58 47 58 11z m220 -283 c-193 -193 -233 -228 -247 -219 -50 31 -49
32 192 274 l229 230 28 -27 29 -27 -231 -231z"/>
<path d="M530 4315 c-13 -15 -5 -39 11 -30 19 13 30 -7 14 -25 -20 -22 -2 -38
21 -19 16 13 29 6 29 -19 0 -9 8 -17 17 -17 20 0 22 -3 12 -28 -9 -24 2 -33
20 -18 18 16 38 5 34 -17 -2 -12 3 -16 17 -14 15 3 9 -8 -25 -42 l-44 -46 -97
96 c-65 65 -99 92 -104 84 -5 -8 30 -50 96 -116 l104 -104 62 62 63 63 -102
102 c-57 57 -106 103 -109 103 -4 0 -12 -7 -19 -15z"/>
<path d="M3690 2708 c-70 -36 -103 -86 -108 -162 -3 -45 0 -72 12 -95 17 -31
16 -33 -13 -69 -16 -20 -59 -66 -95 -101 -62 -62 -66 -64 -84 -48 -29 26 -57
20 -91 -18 -36 -41 -37 -51 -14 -77 16 -18 16 -21 0 -47 -22 -38 -21 -57 3
-81 39 -39 56 -28 231 146 l167 166 46 -17 c120 -46 251 36 264 163 12 125
-117 262 -245 262 -16 0 -49 -10 -73 -22z m183 -44 c133 -94 141 -253 17 -323
-131 -73 -319 82 -279 231 31 117 161 162 262 92z m-220 -302 c16 -17 8 -27
-139 -181 -119 -122 -162 -161 -178 -159 -50 7 -30 39 130 199 87 88 161 159
165 159 3 0 13 -8 22 -18z"/>
<path d="M3744 2639 c-43 -12 -75 -50 -81 -98 -8 -57 31 -122 92 -151 55 -26
93 -21 134 21 42 42 48 80 19 136 -36 72 -100 108 -164 92z m111 -65 c58 -58
54 -118 -10 -160 -34 -22 -70 -11 -117 35 -57 58 -51 128 14 155 41 18 74 9
113 -30z"/>
<path d="M412 2571 c-318 -138 -373 -164 -361 -175 2 -2 64 -34 137 -70 l132
-66 67 -135 c37 -74 72 -135 78 -135 13 0 318 708 310 720 -3 6 -9 10 -13 10
-4 0 -161 -67 -350 -149z m89 -105 l-174 -174 -104 51 c-56 28 -103 55 -103
58 0 7 527 237 545 238 5 1 -68 -77 -164 -173z m83 -135 c-64 -149 -119 -271
-123 -271 -3 0 -30 46 -58 103 l-51 102 171 172 c94 95 173 171 174 169 2 -2
-49 -125 -113 -275z"/>
<path d="M285 790 c-127 -40 -226 -140 -265 -268 -66 -212 54 -436 268 -502
212 -66 436 54 502 268 95 307 -199 599 -505 502z m105 -25 c0 -8 7 -15 15
-15 8 0 15 7 15 15 0 13 7 15 38 9 166 -30 286 -150 316 -316 6 -31 4 -38 -9
-38 -8 0 -15 -7 -15 -15 0 -8 7 -15 15 -15 13 0 15 -7 9 -37 -30 -167 -150
-287 -316 -317 -31 -6 -38 -4 -38 9 0 8 -7 15 -15 15 -8 0 -15 -7 -15 -15 0
-13 -7 -15 -37 -9 -167 30 -287 150 -317 317 -6 30 -4 37 9 37 8 0 15 7 15 15
0 8 -7 15 -15 15 -13 0 -15 7 -9 38 13 73 46 142 91 192 54 60 108 94 183 114
71 19 80 19 80 1z"/>
<path d="M472 537 l-123 -82 -79 -123 c-79 -121 -89 -142 -71 -142 5 0 66 36
134 81 l125 81 81 125 c45 68 81 129 81 134 0 19 -29 5 -148 -74z"/>
<path d="M3565 765 c-3 -14 -7 -35 -10 -48 -3 -17 -16 -27 -44 -37 -36 -11
-42 -11 -69 9 -17 11 -36 21 -44 21 -14 0 -78 -60 -78 -74 0 -4 11 -23 24 -42
23 -34 23 -37 9 -74 -14 -34 -20 -39 -62 -47 l-46 -8 -3 -57 c-3 -61 -5 -59
64 -73 25 -5 35 -14 47 -45 14 -37 14 -40 -9 -74 -13 -19 -24 -39 -24 -44 0
-14 65 -72 80 -72 8 0 28 11 44 24 29 22 31 22 68 7 23 -9 40 -24 43 -36 17
-83 10 -76 73 -73 l57 3 11 45 c9 40 15 47 51 59 37 13 42 13 71 -7 16 -12 34
-22 39 -22 5 0 26 18 48 40 l38 39 -28 36 -27 37 17 39 c15 33 24 40 59 46
l41 9 3 62 c3 59 2 62 -20 62 -46 0 -66 12 -83 50 -17 38 -17 38 9 76 l26 38
-37 38 c-43 44 -51 46 -88 16 -26 -20 -29 -21 -69 -6 -38 14 -42 19 -50 61
l-8 47 -59 0 c-54 0 -59 -2 -64 -25z m99 -21 c3 -9 6 -27 6 -40 0 -20 10 -29
57 -49 l56 -25 38 24 37 25 22 -24 22 -23 -25 -37 -25 -37 24 -51 c21 -47 28
-53 64 -60 37 -8 40 -11 40 -41 0 -31 -3 -34 -40 -42 -36 -8 -43 -15 -64 -61
l-24 -51 25 -37 25 -37 -23 -24 -22 -24 -34 26 -34 26 -57 -25 c-37 -15 -58
-31 -60 -43 -9 -62 -12 -65 -45 -62 -28 3 -32 7 -39 44 -8 37 -13 42 -63 63
l-55 23 -34 -25 -33 -26 -23 24 -22 24 22 35 21 36 -19 52 c-18 49 -23 53 -63
63 -39 10 -44 14 -47 42 -3 29 -1 31 44 39 46 9 47 10 67 65 l20 56 -23 31
-24 32 24 25 23 25 34 -26 34 -26 54 23 c54 22 65 37 65 87 0 18 5 22 34 22
22 0 36 -6 40 -16z"/>
<path d="M3533 595 c-157 -79 -157 -301 0 -380 145 -72 307 28 307 189 0 67
-9 93 -52 141 -66 76 -164 95 -255 50z m173 -24 c23 -10 54 -36 70 -57 26 -33
29 -46 29 -109 0 -63 -3 -76 -29 -109 -51 -68 -138 -92 -214 -61 -75 32 -115
90 -115 170 0 136 135 222 259 166z"/>
<path d="M3558 481 c-28 -25 -33 -36 -33 -76 0 -40 5 -51 33 -76 58 -52 138
-34 169 38 43 104 -85 189 -169 114z m111 -11 c10 -5 24 -22 30 -39 10 -24 10
-34 -3 -59 -16 -32 -34 -42 -72 -42 -33 0 -74 42 -74 75 0 53 70 92 119 65z"/>
</g>
</svg>
